<svg width="33" height="32" viewBox="0 0 33 32" fill="none" xmlns="http://www.w3.org/2000/svg">
<path id="Vector" d="M3.20501 6.4H0V28.8C0 30.56 1.44225 32 3.20501 32H25.6401V28.8H3.20501V6.4ZM28.8451 0H9.61502C7.85227 0 6.41002 1.44 6.41002 3.2V22.4C6.41002 24.16 7.85227 25.6 9.61502 25.6H28.8451C30.6078 25.6 32.0501 24.16 32.0501 22.4V3.2C32.0501 1.44 30.6078 0 28.8451 0ZM28.8451 22.4H9.61502V3.2H28.8451V22.4ZM17.6275 20.8H20.8326V14.4H27.2426V11.2H20.8326V4.8H17.6275V11.2H11.2175V14.4H17.6275V20.8Z" fill="black"/>
</svg>
