<svg width="47" height="48" viewBox="0 0 47 48" fill="none" xmlns="http://www.w3.org/2000/svg">
<path id="Vector" d="M2.35 9.6C1.0575 9.6 0 10.68 0 12V43.2C0 45.84 2.115 48 4.7 48H35.25C36.5425 48 37.6 46.92 37.6 45.6C37.6 44.28 36.5425 43.2 35.25 43.2H7.05C5.7575 43.2 4.7 42.12 4.7 40.8V12C4.7 10.68 3.6425 9.6 2.35 9.6ZM42.3 0H14.1C11.515 0 9.4 2.16 9.4 4.8V33.6C9.4 36.24 11.515 38.4 14.1 38.4H42.3C44.885 38.4 47 36.24 47 33.6V4.8C47 2.16 44.885 0 42.3 0ZM37.6 21.6H30.55V28.8C30.55 30.12 29.4925 31.2 28.2 31.2C26.9075 31.2 25.85 30.12 25.85 28.8V21.6H18.8C17.5075 21.6 16.45 20.52 16.45 19.2C16.45 17.88 17.5075 16.8 18.8 16.8H25.85V9.6C25.85 8.28 26.9075 7.2 28.2 7.2C29.4925 7.2 30.55 8.28 30.55 9.6V16.8H37.6C38.8925 16.8 39.95 17.88 39.95 19.2C39.95 20.52 38.8925 21.6 37.6 21.6Z" fill="white"/>
</svg>
