<?xml version="1.0" encoding="UTF-8"?>
<!DOCTYPE svg PUBLIC "-//W3C//DTD SVG 1.1//EN" "http://www.w3.org/Graphics/SVG/1.1/DTD/svg11.dtd">
<!-- Creator: CorelDRAW -->
<svg xmlns="http://www.w3.org/2000/svg" xml:space="preserve" width="4000px" height="4000px" version="1.1" style="shape-rendering:geometricPrecision; text-rendering:geometricPrecision; image-rendering:optimizeQuality; fill-rule:evenodd; clip-rule:evenodd"
viewBox="0 0 4000 4000"
 xmlns:xlink="http://www.w3.org/1999/xlink"
 xmlns:xodm="http://www.corel.com/coreldraw/odm/2003">
 <defs>
  <style type="text/css">
   <![CDATA[
    .fil0 {fill:#FCC007}
    .fil1 {fill:#FCC007;fill-rule:nonzero}
   ]]>
  </style>
 </defs>
 <g id="Layer_x0020_1">
  <metadata id="CorelCorpID_0Corel-Layer"/>
  <g id="_1803877307136">
   <path class="fil0" d="M1780.66 875.5l-0.13 1345.71c-6.57,-4.26 -6.94,-6.37 -11.43,-11.14l-34.07 -33.51c-9.98,-9.32 -13.54,-15.26 -22.05,-23.56 -7.85,-7.66 -16.91,-15.66 -23.46,-23.86 -15.5,-19.4 -87.84,-91.91 -111.67,-118.77 -7.16,-8.06 -13.72,-16.32 -20.93,-24.35 -6.94,-7.72 -15.26,-14.71 -22.53,-22.73l-189.4 -226.23c-88.35,-109.91 -249.63,-334.89 -268.93,-467.71 -7.8,-53.59 -9.22,-122.12 -2.18,-176 31.68,-242.56 186.55,-334.77 421.05,-300.34 78.27,11.49 191.88,44.65 266.83,76.68 8.42,3.61 8.09,4.32 18.9,5.81zm191.95 1777.08l-1.33 -947.51c0.01,-317.47 2.48,-635.79 1.02,-953.1l-94.64 -41.41c-31.88,-13.69 -65.83,-27.96 -98.64,-39.18 -71.48,-24.45 -135.47,-45.24 -215.37,-60.72 -168.94,-32.72 -335.49,-15.17 -455.42,64.37 -43.25,28.69 -81.58,65.46 -113.78,106.34 -2.17,2.75 -5.4,7.83 -7.52,11.01 -46.35,69.69 -71.97,124.22 -92.43,218.23 -17.78,81.73 -20.55,171.02 -11.36,256.21 9.51,88.03 32.08,144.01 63.61,212.11 14,30.24 31.29,61.25 47.46,88.32 39.93,66.88 66.6,104.72 108.9,166.78 22.12,32.45 94.39,127.95 119.34,156.39l109.41 131.36c6.06,7.02 8.89,11.18 16.39,18.57l96.94 108.83c37.88,45.03 186.1,194.79 237.93,243.56l87.94 82.87c29.8,27.01 59.8,56.36 91.38,81.42l110.17 95.55z"/>
   <path class="fil0" d="M2217.9 878.25c13.2,-8.14 48.59,-19.98 65.37,-26.07 161.59,-58.76 373.58,-108.99 518.49,-6.08 10.81,7.68 39.74,35.82 46.95,45.65 12.35,16.8 25.41,36.31 35.6,57.04 44.45,90.44 56.6,217.67 39.77,317.8 -8.88,52.82 -25.81,94.46 -46.68,136.4 -52.55,105.63 -160.94,260.82 -242.92,359.97l-125.82 149.91c-7.19,7.55 -13.39,16.68 -20.47,24.82 -7.12,8.2 -16.26,15.5 -23.01,24.27 -16.17,21.01 -67.65,73.38 -88.39,96.83 -36.73,41.55 -76.63,78.08 -112.54,117.93 -7.68,8.51 -14.58,14.36 -22.86,22.41 -4.38,4.25 -7.15,6.89 -11.47,11.16l-11.39 10.31c-3.64,-8.66 -1.69,-1058.15 -1.45,-1260.4 0.03,-22.41 -2.09,-61.65 0.82,-81.95zm-190.72 1774.19c7.89,-5.69 12.03,-9.85 19.76,-16.08l37.84 -32.11c15.82,-14.07 37.62,-35.73 54.32,-48.56l214.92 -198.66c30.14,-30.27 115.09,-113.92 136.6,-139.14 29.83,-34.98 70.32,-73.2 98.06,-105.63l190.24 -223.33c35.13,-43.95 89.87,-114.26 119.11,-156.62 65.29,-94.55 100.94,-146.3 155.75,-255.86 34.33,-68.63 54.47,-134.55 63.05,-212.98 34.63,-316.58 -104.26,-617.19 -427.32,-662.68 -82.95,-11.68 -174.44,-4.74 -254.3,10.31 -103.77,19.55 -218.38,57.71 -313.84,99.8 -15.84,6.99 -82.84,38.43 -94.26,40.76l0.07 1900.78z"/>
  </g>
  <path class="fil1" d="M965.31 3219.17c-0.65,-1.08 -1.41,-1.62 -2.28,-1.62l-168.71 0 0 -369.23c0,-2.17 -1.08,-3.25 -3.25,-3.25l-103.82 0c-2.17,0 -3.25,1.08 -3.25,3.25l0 452.94c0,2.16 1.08,3.24 3.25,3.24l275.78 0c1.3,0 2.38,-1.73 3.25,-5.19l0 -76.57c0,-1.3 -0.33,-2.49 -0.97,-3.57zm74.62 58.73c25.31,22.06 63.49,33.09 114.53,33.09 51.05,0 89.12,-11.03 114.21,-33.09 25.09,-22.06 37.64,-52.78 37.64,-92.15l0 -88.25c0,-41.53 -12.44,-73.43 -37.31,-95.71 -24.88,-22.28 -63.06,-33.42 -114.54,-33.42 -51.04,0 -89.22,11.24 -114.53,33.74 -25.31,22.5 -37.96,54.29 -37.96,95.39l0 88.25c0,39.37 12.65,70.09 37.96,92.15zm160.61 -94.09c0,32.87 -15.36,49.31 -46.08,49.31 -17.3,0 -29.41,-4.65 -36.33,-13.95 -6.93,-9.3 -10.39,-21.09 -10.39,-35.36l0 -88.26c0,-14.27 3.46,-26.06 10.39,-35.36 6.92,-9.3 19.03,-13.95 36.33,-13.95 30.72,0 46.08,16.44 46.08,49.31l0 88.26zm218.68 117.45c0.87,2.16 1.95,3.24 3.25,3.24l131.08 0c1.73,0 3.02,-1.08 3.89,-3.24l89.55 -323.16c0,-2.16 -1.08,-3.24 -3.24,-3.24l-101.88 0c-1.3,0 -2.38,1.08 -3.25,3.24l-29.85 112.91c-3.89,15.58 -7.46,36.23 -10.71,61.97 -3.24,25.74 -5.3,45.32 -6.16,58.73l-7.79 0c-0.86,-14.28 -2.81,-33.96 -5.84,-59.05 -3.03,-25.09 -6.49,-45.64 -10.38,-61.65l-30.5 -112.91c0,-2.16 -1.08,-3.24 -3.24,-3.24l-101.23 0c-0.87,0 -1.73,0.32 -2.6,0.97 -0.87,0.65 -1.08,1.4 -0.65,2.27l89.55 323.16zm514.27 -301.42c-24.45,-20.55 -61.76,-30.82 -111.94,-30.82 -101.67,0 -152.5,42.39 -152.5,127.18l0 90.2c0,39.8 12.33,70.52 36.99,92.15 24.66,21.63 62.51,32.44 113.56,32.44 50.62,0 88.25,-9.08 112.91,-27.25 24.66,-18.17 36.99,-42.83 36.99,-73.98l0 -27.9c0,-2.16 -1.08,-3.24 -3.24,-3.24l-99.29 0c-2.16,0 -3.24,1.08 -3.24,3.24l0 26.61c0,8.65 -3.03,15.68 -9.09,21.08 -6.05,5.41 -16.22,8.12 -30.5,8.12 -32.87,0 -49.31,-17.09 -49.31,-51.27l0 -27.9 192.08 0c2.16,0 3.24,-1.3 3.24,-3.9l0 -69.43c0,-36.34 -12.22,-64.78 -36.66,-85.33zm-158.66 106.1l0 -12.98c0,-34.18 15.79,-51.27 47.37,-51.27 15.57,0 26.49,3.79 32.77,11.36 6.27,7.57 9.41,18.28 9.41,32.12l0 20.12 -89.55 0.65zm584.67 -9.41c-12.98,-12.76 -29.85,-20.44 -50.62,-23.04l0 -4.54c19.04,-2.6 34.39,-11.36 46.08,-26.28 11.68,-14.93 17.52,-33.64 17.52,-56.13l0 -37.64c0,-36.77 -11.04,-63.27 -33.1,-79.49 -22.06,-16.23 -56.89,-24.34 -104.47,-24.34l-190.14 0c-2.16,0 -3.24,1.08 -3.24,3.25l0 452.94c0,2.16 1.08,3.24 3.24,3.24l192.73 0c47.59,0 83.06,-8.54 106.42,-25.63 23.37,-17.09 35.05,-43.8 35.05,-80.14l0 -50.61c0,-21.64 -6.49,-38.83 -19.47,-51.59zm-103.83 -158.66c5.63,4.76 8.44,12.54 8.44,23.36l0 41.53c0,10.81 -2.71,18.6 -8.11,23.36 -5.41,4.76 -14.61,7.14 -27.58,7.14l-76.58 0 0 -102.53 75.28 0c13.41,0 22.93,2.38 28.55,7.14zm12.98 205.7l0 44.78c0,9.95 -2.92,17.52 -8.76,22.71 -5.84,5.19 -15.25,7.79 -28.23,7.79l-79.82 0 0 -105.13 81.77 0c12.54,0 21.52,2.38 26.93,7.14 5.41,4.76 8.11,12.33 8.11,22.71zm371.83 146.66l86.3 -312.13c0,-2.16 -1.08,-3.24 -3.24,-3.24l-101.88 0c-1.3,0 -2.38,1.08 -3.25,3.24l-29.85 112.91c-3.89,15.58 -7.46,36.23 -10.7,61.97 -3.25,25.74 -5.3,45.32 -6.17,58.73l-7.78 0c-0.87,-14.28 -2.82,-33.96 -5.84,-59.05 -3.03,-25.09 -6.49,-45.64 -10.39,-61.65l-30.5 -112.91c0,-2.16 -1.08,-3.24 -3.24,-3.24l-101.23 0c-0.87,0 -1.73,0.32 -2.6,0.97 -0.86,0.65 -1.08,1.4 -0.65,2.27l86.31 317.97c0.86,2.16 1.95,3.24 3.24,3.24l40.24 -0.65c-1.73,10.82 -5.3,18.17 -10.71,22.07 -5.41,3.89 -12.87,5.84 -22.39,5.84l-73.32 0c-2.17,0 -3.25,1.08 -3.25,3.24l0 72.03c0,2.16 1.08,3.25 3.25,3.25l100.58 0c25.52,0 46.07,-5.3 61.64,-15.9 15.58,-10.6 27.04,-28.23 34.4,-52.89l11.03 -46.07zm332.89 -61c0,-2.16 -1.08,-3.24 -3.24,-3.24l-48.02 0c-10.39,0 -17.52,-2.28 -21.42,-6.82 -3.89,-4.54 -5.84,-12.44 -5.84,-23.68l0 -141.47 74.63 0c2.16,0 3.24,-1.08 3.24,-3.24l0 -72.68c0,-2.16 -1.08,-3.24 -3.24,-3.24l-74.63 0 0 -83.06c0,-2.17 -1.08,-3.25 -3.24,-3.25l-98.64 0c-2.16,0 -3.24,1.08 -3.24,3.25l0 83.06 -53.86 0c-2.17,0 -3.25,1.08 -3.25,3.24l0 72.68c0,2.16 1.08,3.24 3.25,3.24l53.86 0 0 168.72c0,26.82 7.68,47.16 23.03,61 15.36,13.84 37.32,20.76 65.87,20.76l91.5 0c2.16,0 3.24,-1.08 3.24,-3.24l0 -72.03zm305.96 -229.39c-24.44,-20.55 -61.75,-30.82 -111.93,-30.82 -101.67,0 -152.5,42.39 -152.5,127.18l0 90.2c0,39.8 12.33,70.52 36.99,92.15 24.66,21.63 62.51,32.44 113.56,32.44 50.61,0 88.25,-9.08 112.91,-27.25 24.66,-18.17 36.99,-42.83 36.99,-73.98l0 -27.9c0,-2.16 -1.08,-3.24 -3.25,-3.24l-99.28 0c-2.16,0 -3.24,1.08 -3.24,3.24l0 26.61c0,8.65 -3.03,15.68 -9.09,21.08 -6.06,5.41 -16.22,8.12 -30.5,8.12 -32.88,0 -49.32,-17.09 -49.32,-51.27l0 -27.9 192.08 0c2.17,0 3.25,-1.3 3.25,-3.9l0 -69.43c0,-36.34 -12.22,-64.78 -36.67,-85.33zm-158.66 106.1l0 -12.98c0,-34.18 15.79,-51.27 47.37,-51.27 15.58,0 26.5,3.79 32.78,11.36 6.27,7.57 9.4,18.28 9.4,32.12l0 20.12 -89.55 0.65z"/>
 </g>
</svg>
