<svg width="72" height="21" viewBox="0 0 72 21" fill="none" xmlns="http://www.w3.org/2000/svg">
<path d="M30.92 10.256L30.936 11.488C30.8933 12.2667 30.7973 12.9227 30.648 13.456C30.4987 13.9893 30.2053 14.4747 29.768 14.912C29.0427 15.6373 27.9867 16 26.6 16C24.968 16 23.848 15.7867 23.24 15.36C22.632 14.9227 22.328 14.1387 22.328 13.008V4.608H26.76C28.04 4.608 29.0427 4.97067 29.768 5.696C30.3547 6.28267 30.7013 6.99733 30.808 7.84C30.8827 8.43733 30.92 9.24267 30.92 10.256ZM28.216 13.312C28.4187 13.0667 28.5467 12.7307 28.6 12.304C28.664 11.8667 28.696 11.1893 28.696 10.272C28.696 9.35467 28.664 8.69333 28.6 8.288C28.5467 7.872 28.4187 7.54133 28.216 7.296C27.832 6.82667 27.2773 6.592 26.552 6.592H24.552V12.896C24.552 13.3227 24.696 13.616 24.984 13.776C25.272 13.936 25.784 14.016 26.52 14.016C27.2667 14.016 27.832 13.7813 28.216 13.312ZM41.4669 10.256L41.4829 11.488C41.4402 12.2667 41.3442 12.9227 41.1949 13.456C41.0455 13.9893 40.7522 14.4747 40.3149 14.912C39.5895 15.6373 38.5335 16 37.1469 16C35.5149 16 34.3949 15.7867 33.7869 15.36C33.1789 14.9227 32.8749 14.1387 32.8749 13.008V4.608H37.3069C38.5869 4.608 39.5895 4.97067 40.3149 5.696C40.9015 6.28267 41.2482 6.99733 41.3549 7.84C41.4295 8.43733 41.4669 9.24267 41.4669 10.256ZM38.7629 13.312C38.9655 13.0667 39.0935 12.7307 39.1469 12.304C39.2109 11.8667 39.2429 11.1893 39.2429 10.272C39.2429 9.35467 39.2109 8.69333 39.1469 8.288C39.0935 7.872 38.9655 7.54133 38.7629 7.296C38.3789 6.82667 37.8242 6.592 37.0989 6.592H35.0989V12.896C35.0989 13.3227 35.2429 13.616 35.5309 13.776C35.8189 13.936 36.3309 14.016 37.0669 14.016C37.8135 14.016 38.3789 13.7813 38.7629 13.312ZM52.0618 16H49.7418L49.1018 14.032H45.2778L44.6538 16H42.3338L45.9818 5.568C46.1418 5.20533 46.3178 4.95467 46.5098 4.816C46.7124 4.67733 46.9578 4.608 47.2458 4.608C47.5338 4.608 47.7631 4.672 47.9338 4.8C48.1151 4.928 48.2751 5.184 48.4138 5.568L52.0618 16ZM48.5898 12.16L47.2458 7.648L45.8378 12.16H48.5898ZM61.0329 6.592H57.9769V16H55.7529V6.592H52.7129V4.608H61.0329V6.592ZM70.2695 16H66.2375C64.9575 16 64.0562 15.7813 63.5335 15.344C63.0215 14.896 62.7655 14.112 62.7655 12.992V4.608H70.2695V6.592H64.9895V9.264H68.6855L68.5255 11.248H64.9895V12.832C64.9895 13.28 65.0908 13.5893 65.2935 13.76C65.4962 13.9307 65.8642 14.016 66.3975 14.016H70.2695V16Z" fill="#4D73F9"/>
<path d="M11 18V4.06113C17.1353 1.00005 18.3392 5.24583 17.9269 8.16115C17.5311 10.7849 12.9791 16.0868 11 18Z" stroke="#4D73F9" strokeWidth="2"/>
<path d="M8 18V4.06113C1.86473 1.00005 0.660769 5.24583 1.07309 8.16115C1.46891 10.7849 6.02088 16.0868 8 18Z" stroke="#4D73F9" strokeWidth="2"/>
</svg>
